# xmcd
#
# Track frame offsets:
#	182
#	17145
#	30040
#	44872
#	59395
#	71562
#	88432
#	106397
#	120527
#	138380
#
# Disc length: 2048 seconds
# Revision: 4
# Processed by: cddbd v1.5.2PL0 Copyright (c) Steve Scherf et al.
# Submitted via: dBpowerAMP V12.0
#
DISCID=8b07fe0a
DTITLE=Mason Dixon - Exception To The Rule
DYEAR=1988
DGENRE=Country
TTITLE0=Exception To The Rule
TTITLE1=Where Does Love Go
TTITLE2=A Mountain Ago
TTITLE3=A Woman Like You
TTITLE4=Lovin' Proof
TTITLE5=Dangerous Road
TTITLE6=When Karen Comes Around
TTITLE7=My Day In The Sun
TTITLE8=This Train
TTITLE9=When It Hurts You Most
EXTD=
EXTT0=
EXTT1=
EXTT2=
EXTT3=
EXTT4=
EXTT5=
EXTT6=
EXTT7=
EXTT8=
EXTT9=
PLAYORDER=
